<!-- filepath: c:\Apps\musicas-new\public\icons\whatsapp.svg -->
<svg xmlns="http://www.w3.org/2000/svg" viewBox="0 0 32 32" fill="currentColor">
  <path d="M16.001 0C7.163 0 0 7.163 0 16c0 2.822.734 5.573 2.126 7.998L.001 32l8.197-2.116A15.92 15.92 0 0016.001 32c8.837 0 16-7.163 16-16S24.838 0 16.001 0zm8.84 23.36c-.366.998-2.14 1.94-2.94 1.98-.8.04-1.54-.366-2.06-.6-.52-.234-1.04-.48-1.54-.74-2.72-1.34-4.5-3.6-5.82-6.34-.32-.64-.62-1.3-.86-1.98-.24-.68-.04-1.42.48-1.86.48-.44.98-.98 1.5-1.48.5-.5.98-.5 1.48-.02.48.48.98.98 1.46 1.46.48.48.48.98.02 1.48-.3.3-.62.62-.92.92-.3.3-.3.62-.1.98.2.36.42.7.64 1.04.9 1.4 2.14 2.54 3.58 3.36.36.2.7.42 1.04.64.36.2.68.2.98-.1.3-.3.62-.62.92-.92.48-.48.98-.48 1.48.02.48.48.98.98 1.46 1.46.48.48.48.98.02 1.48z"/>
</svg>