<!-- filepath: c:\Apps\musicas-new\public\icons\pinterest.svg -->
<svg xmlns="http://www.w3.org/2000/svg" viewBox="0 0 24 24" fill="currentColor">
  <path d="M12 0c-6.627 0-12 5.373-12 12 0 4.991 3.657 9.128 8.438 10.292-.117-.875-.223-2.219.047-3.172.242-.938 1.562-6.312 1.562-6.312s-.398-.797-.398-1.969c0-1.844 1.07-3.219 2.406-3.219 1.133 0 1.68.852 1.68 1.875 0 1.14-.726 2.844-1.101 4.422-.312 1.328.664 2.414 1.969 2.414 2.359 0 4.172-2.484 4.172-6.047 0-3.156-2.273-5.367-5.531-5.367-3.781 0-6.016 2.844-6.016 5.789 0 1.148.438 2.383.984 3.047.109.133.125.25.093.391-.102.43-.328 1.367-.375 1.562-.055.234-.18.281-.414.172-1.547-.719-2.523-2.969-2.523-4.789 0-3.891 2.828-7.469 8.164-7.469 4.281 0 7.617 3.047 7.617 7.125 0 4.242-2.664 7.641-6.367 7.641-1.242 0-2.414-.648-2.812-1.406l-.766 2.906c-.281 1.094-1.047 2.469-1.562 3.312 1.172.359 2.414.563 3.719.563 6.627 0 12-5.373 12-12s-5.373-12-12-12z"/>
</svg>